<svg id="Layer_1" data-name="Layer 1" xmlns="http://www.w3.org/2000/svg" xmlns:xlink="http://www.w3.org/1999/xlink" viewBox="0 0 320.04 320.04"><defs><style>.cls-1,.cls-10,.cls-4,.cls-5,.cls-6,.cls-7,.cls-9{stroke:#42210b;}.cls-1,.cls-10,.cls-11,.cls-2,.cls-4,.cls-5,.cls-6,.cls-7,.cls-8,.cls-9{stroke-miterlimit:10;}.cls-1{stroke-width:5px;fill:url(#linear-gradient);}.cls-11,.cls-2{stroke:#534741;}.cls-2{fill:url(#linear-gradient-2);}.cls-3{fill:#534741;}.cls-4{fill:#42210b;}.cls-10,.cls-4,.cls-5,.cls-9{stroke-width:3px;}.cls-5,.cls-6{fill:#f15a24;}.cls-6{stroke-width:9px;}.cls-7{fill:none;stroke-width:6px;}.cls-8{fill:#fff;stroke:#000;}.cls-9{fill:url(#linear-gradient-3);}.cls-10{fill:url(#linear-gradient-4);}.cls-11{opacity:0.61;font-size:111px;font-family:Verlag-Black, Verlag;letter-spacing:-0.06em;}</style><linearGradient id="linear-gradient" x1="148.86" y1="164.18" x2="462.9" y2="164.18" gradientUnits="userSpaceOnUse"><stop offset="0" stop-color="#f15a24"/><stop offset="0.3" stop-color="#f7931e"/></linearGradient><linearGradient id="linear-gradient-2" x1="265.64" y1="233.2" x2="209.09" y2="245.52" gradientUnits="userSpaceOnUse"><stop offset="0" stop-color="#463932"/><stop offset="1" stop-color="#42374b"/></linearGradient><linearGradient id="linear-gradient-3" x1="233.98" y1="118.75" x2="233.98" y2="118.75" xlink:href="#linear-gradient"/><linearGradient id="linear-gradient-4" x1="124.65" y1="118.75" x2="124.65" y2="118.75" xlink:href="#linear-gradient"/></defs><title>watcher logo 404</title><path class="cls-1" d="M322.9,164.18a157.14,157.14,0,1,1-157-157A157,157,0,0,1,322.9,164.18Z" transform="translate(-5.86 -4.16)"/><path class="cls-2" d="M50.62,210.88,67.38,243.6a2.33,2.33,0,0,0,4.09.1l10.26-17.89a2.32,2.32,0,0,1,4.2.38l3.69,10.43a2.33,2.33,0,0,0,4.39,0l8.18-23.72a2.32,2.32,0,0,1,4.4,0l11.07,33a2.32,2.32,0,0,0,4.43-.08l10.18-34.54a2.32,2.32,0,0,1,4.33-.32L153,246.05a2.33,2.33,0,0,0,4.19,0l3.11-6.28a2.32,2.32,0,0,1,4.1-.12l8.74,15.3a2.32,2.32,0,0,0,4,.05l20.59-33.84a2.33,2.33,0,0,1,4.19.47l9.8,29.37a2.32,2.32,0,0,0,4.39,0l5.1-14.22a2.32,2.32,0,0,1,4.36,0L230,248.67a2.33,2.33,0,0,0,4.39-.1l.47-1.45,7.34-22.79a2.32,2.32,0,0,1,4.45.1l3.76,13.63a2.33,2.33,0,0,0,4.23.59l6-9.93a2.33,2.33,0,0,1,3.78-.28l4.65,5.62a2.31,2.31,0,0,0,4-.81l10.05-33.53a2.32,2.32,0,0,1,4.23-.5l19.28,33.12a2.34,2.34,0,0,1,0,2.29l-6.8,12.43a2.88,2.88,0,0,1-.23.34L274.3,278.71a1.92,1.92,0,0,1-.28.29l-11.1,9.61a.44.44,0,0,1-.15.12L254.19,295l-.33.2-10.14,5.08-.15.07-9.41,3.89a2.21,2.21,0,0,0-.34.18l-11.17,7a2.23,2.23,0,0,1-.47.22l-10.92,3.85-.22.06-15,3.71-.22,0-14.07,2.06-.19,0-12,.73h-.14l-9.58,0h-.22L146.84,321l-.21,0-18.57-3.42-.21-.05-10.3-2.94-.17-.06-12.58-4.69-.23-.1L87.05,301a1.78,1.78,0,0,1-.3-.17l-8.69-6.09-.15-.11L59.75,279.55l-.11-.1L46,266.57a2.28,2.28,0,0,1-.29-.33L32.34,247.63a2.33,2.33,0,0,1-.26-2.25L46.41,211A2.32,2.32,0,0,1,50.62,210.88Z" transform="translate(-5.86 -4.16)"/><path class="cls-3" d="M150,27.67" transform="translate(-5.86 -4.16)"/><path class="cls-4" d="M104.37,130l-20.14.67a3.66,3.66,0,0,0-3.67,3.66h0A3.67,3.67,0,0,0,84.23,138H242.82a3.66,3.66,0,0,0,3.66-3.67h0a3.66,3.66,0,0,0-3.66-3.66H228.55" transform="translate(-5.86 -4.16)"/><path class="cls-5" d="M86.89,138" transform="translate(-5.86 -4.16)"/><line class="cls-6" x1="101.2" y1="306.44" x2="124.64" y2="133.88"/><line class="cls-6" x1="193.04" y1="133.84" x2="222.96" y2="302.6"/><line class="cls-6" x1="116.79" y1="195.66" x2="203.29" y2="195.66"/><line class="cls-6" x1="124.64" y1="140.84" x2="201.65" y2="181.43"/><line class="cls-6" x1="197.11" y1="139.68" x2="120.09" y2="180.27"/><polyline class="cls-6" points="116.79 209.34 171.87 238.59 214.56 261.26"/><polyline class="cls-6" points="205.42 207.9 150.34 237.15 107.64 259.82"/><path class="cls-7" d="M322.9,164.18a157.14,157.14,0,1,1-157-157A157,157,0,0,1,322.9,164.18Z" transform="translate(-5.86 -4.16)"/><path class="cls-8" d="M209.51,141.75" transform="translate(-5.86 -4.16)"/><path class="cls-9" d="M234,118.75" transform="translate(-5.86 -4.16)"/><path class="cls-10" d="M124.65,118.75" transform="translate(-5.86 -4.16)"/><text class="cls-11" transform="translate(143.19 114.87)">!</text></svg>