<svg id="Layer_1" data-name="Layer 1" xmlns="http://www.w3.org/2000/svg" xmlns:xlink="http://www.w3.org/1999/xlink" viewBox="0 0 58 58"><defs><style>.cls-1,.cls-10,.cls-11,.cls-12,.cls-14,.cls-15,.cls-5,.cls-8,.cls-9{stroke:#42210b;}.cls-1,.cls-10,.cls-11,.cls-12,.cls-13,.cls-14,.cls-15,.cls-2,.cls-5,.cls-8,.cls-9{stroke-miterlimit:10;}.cls-1,.cls-5{stroke-width:2px;}.cls-1{fill:url(#linear-gradient);}.cls-2{fill:#736357;stroke:#736357;}.cls-12,.cls-14,.cls-15,.cls-2{stroke-width:3px;}.cls-3{fill:#534741;}.cls-4{fill:#c1272d;}.cls-5,.cls-8{fill:#42210b;}.cls-6{fill:#603813;}.cls-7{fill:#754c24;}.cls-10,.cls-12,.cls-9{fill:#f15a24;}.cls-10{stroke-width:0.75px;}.cls-11{fill:#f7931e;}.cls-13{fill:#fff;stroke:#000;}.cls-14{fill:url(#linear-gradient-2);}.cls-15{fill:url(#linear-gradient-3);}</style><linearGradient id="linear-gradient" x1="26.46" y1="29.5" x2="82.46" y2="29.5" gradientUnits="userSpaceOnUse"><stop offset="0" stop-color="#f15a24"/><stop offset="0.3" stop-color="#f7931e"/></linearGradient><linearGradient id="linear-gradient-2" x1="51.61" y1="39.07" x2="51.61" y2="39.07" xlink:href="#linear-gradient"/><linearGradient id="linear-gradient-3" x1="15.69" y1="39.07" x2="15.69" y2="39.07" xlink:href="#linear-gradient"/></defs><title>watcher logo favicon 2</title><path class="cls-1" d="M57.5,29.5A28,28,0,0,1,8.86,48.42,28.45,28.45,0,0,1,5.55,44a28,28,0,1,1,52-14.52Z" transform="translate(-0.5 -0.5)"/><polyline class="cls-2" points="29.71 14.62 29.71 16.2 29.71 5.1"/><path class="cls-3" d="M24,9.14" transform="translate(-0.5 -0.5)"/><polygon class="cls-4" points="31.17 3.5 17.37 8.66 31.17 12.75 31.17 3.5"/><polygon class="cls-5" points="29.48 15.82 5.3 31.59 5.3 33.89 7.83 33.89 7.99 42.27 29.48 42.27 49.77 42.27 49.77 34.05 52.3 34.05 52.3 31.75 29.48 15.82"/><rect class="cls-6" x="5.32" y="31.75" width="46.91" height="1.97"/><polygon class="cls-7" points="29.71 15.58 50.03 33.72 52.23 33.72 52.26 31.76 29.71 15.58"/><polyline class="cls-8" points="13.05 42.99 8.78 42.99 8.78 45.4 10.49 45.4 48.27 45.4 48.27 42.99 44.01 42.99"/><rect class="cls-9" x="10.7" y="35.91" width="5.19" height="5.31"/><rect class="cls-10" x="19.37" y="35.91" width="5.19" height="5.31"/><rect class="cls-11" x="32.9" y="35.91" width="5.19" height="5.31"/><rect class="cls-11" x="41.24" y="35.91" width="5.19" height="5.31"/><path class="cls-12" d="M3.29,45.39" transform="translate(-0.5 -0.5)"/><path class="cls-13" d="M43.57,46.63" transform="translate(-0.5 -0.5)"/><path class="cls-14" d="M51.61,39.07" transform="translate(-0.5 -0.5)"/><path class="cls-15" d="M15.69,39.07" transform="translate(-0.5 -0.5)"/></svg>