<svg id="Layer_1" data-name="Layer 1" xmlns="http://www.w3.org/2000/svg" xmlns:xlink="http://www.w3.org/1999/xlink" viewBox="0 0 107.18 107.18"><defs><style>.cls-1,.cls-10,.cls-11,.cls-12,.cls-13,.cls-15,.cls-16,.cls-5,.cls-8,.cls-9{stroke:#42210b;}.cls-1,.cls-10,.cls-11,.cls-12,.cls-13,.cls-14,.cls-15,.cls-16,.cls-5,.cls-8,.cls-9{stroke-miterlimit:10;}.cls-1,.cls-5{stroke-width:2px;}.cls-1{fill:url(#linear-gradient);}.cls-2{fill:#534741;}.cls-3{fill:#42374b;}.cls-4{fill:#c1272d;}.cls-5,.cls-8{fill:#42210b;}.cls-6{fill:#603813;}.cls-7{fill:#754c24;}.cls-10,.cls-12,.cls-9{fill:#f15a24;}.cls-10{stroke-width:0.75px;}.cls-11{fill:#f7931e;}.cls-12,.cls-15,.cls-16{stroke-width:3px;}.cls-13{fill:none;stroke-width:4px;}.cls-14{fill:#fff;stroke:#000;}.cls-15{fill:url(#linear-gradient-2);}.cls-16{fill:url(#linear-gradient-3);}</style><linearGradient id="linear-gradient" x1="51.64" y1="56.25" x2="154.82" y2="56.25" gradientUnits="userSpaceOnUse"><stop offset="0" stop-color="#f15a24"/><stop offset="0.3" stop-color="#f7931e"/></linearGradient><linearGradient id="linear-gradient-2" x1="79.61" y1="41.32" x2="79.61" y2="41.32" xlink:href="#linear-gradient"/><linearGradient id="linear-gradient-3" x1="43.69" y1="41.32" x2="43.69" y2="41.32" xlink:href="#linear-gradient"/></defs><title>watcher logo small</title><path class="cls-1" d="M108.83,56.25A51.6,51.6,0,0,1,19.21,91.12,52.14,52.14,0,0,1,13.11,83a51.59,51.59,0,1,1,95.72-26.74Z" transform="translate(-3.65 -2.66)"/><polyline class="cls-2" points="53.58 15.58 53.58 10.05 54.26 10.13 54.26 16.93 53.58 16.84"/><polygon class="cls-3" points="14.97 67.47 21.87 80.94 26.77 72.4 29.26 79.45 33.4 67.47 38.52 82.75 43.12 67.14 50.03 81.93 52.39 77.16 56.62 84.55 64.91 70.92 69.35 84.23 72.47 75.52 75.43 83.4 76.25 80.84 79.45 70.92 81.83 79.58 85.28 73.88 88.4 77.65 92.62 63.58 100.06 76.36 97.58 80.88 89.17 91.27 85.45 94.5 82.55 96.62 79.14 98.33 75.97 99.64 72.17 102.03 68.47 103.33 63.45 104.57 58.76 105.25 54.76 105.5 51.55 105.51 47.3 105.13 41.13 103.99 37.68 103.01 33.48 101.44 27.64 98.52 24.71 96.47 18.7 91.48 14.16 87.18 9.46 80.66 14.97 67.47"/><path class="cls-2" d="M52,11.4" transform="translate(-3.65 -2.66)"/><polygon class="cls-4" points="54.25 9.59 49.32 11.42 54.25 12.87 54.25 9.59"/><polygon class="cls-5" points="53.94 15.91 29.39 31.68 29.39 33.98 31.96 33.98 32.12 42.36 53.94 42.36 74.53 42.36 74.53 34.15 77.1 34.15 77.1 31.85 53.94 15.91"/><rect class="cls-6" x="28.56" y="31.85" width="48.52" height="1.97"/><polygon class="cls-7" points="54.26 15.58 74.86 33.82 77.08 33.82 77.1 31.85 54.26 15.58"/><polyline class="cls-8" points="31.45 42.58 25.56 42.58 25.56 44.99 27.91 44.99 80.07 44.99 80.07 42.58 74.18 42.58"/><rect class="cls-9" x="35.55" y="36.01" width="5.19" height="5.31"/><rect class="cls-10" x="44.22" y="36.01" width="5.19" height="5.31"/><rect class="cls-11" x="57.74" y="36.01" width="5.19" height="5.31"/><rect class="cls-11" x="66.09" y="36.01" width="5.19" height="5.31"/><path class="cls-12" d="M31.28,47.65" transform="translate(-3.65 -2.66)"/><line class="cls-12" x1="34.27" y1="101.7" x2="41.97" y2="45"/><line class="cls-12" x1="64.44" y1="44.99" x2="74.27" y2="100.44"/><line class="cls-12" x1="39.39" y1="65.3" x2="67.81" y2="65.3"/><line class="cls-12" x1="41.97" y1="47.29" x2="67.27" y2="60.62"/><line class="cls-12" x1="65.78" y1="46.91" x2="40.47" y2="60.24"/><polyline class="cls-12" points="39.39 69.8 57.48 79.41 71.51 86.86"/><polyline class="cls-12" points="68.51 69.32 50.41 78.93 36.38 86.38"/><path class="cls-13" d="M108.83,56.25A51.6,51.6,0,0,1,19.21,91.12,52.14,52.14,0,0,1,13.11,83a51.59,51.59,0,1,1,95.72-26.74Z" transform="translate(-3.65 -2.66)"/><path class="cls-14" d="M71.57,48.88" transform="translate(-3.65 -2.66)"/><path class="cls-15" d="M79.61,41.32" transform="translate(-3.65 -2.66)"/><path class="cls-16" d="M43.69,41.32" transform="translate(-3.65 -2.66)"/></svg>