<svg id="Layer_1" data-name="Layer 1" xmlns="http://www.w3.org/2000/svg" xmlns:xlink="http://www.w3.org/1999/xlink" viewBox="0 0 243 363.05"><defs><style>.cls-1,.cls-3{fill:#534741;}.cls-1,.cls-14{stroke:#000;}.cls-1,.cls-10,.cls-11,.cls-12,.cls-13,.cls-14,.cls-15,.cls-16,.cls-2,.cls-4,.cls-6,.cls-9{stroke-miterlimit:10;}.cls-10,.cls-11,.cls-12,.cls-13,.cls-15,.cls-16,.cls-2,.cls-4,.cls-6,.cls-9{stroke:#42210b;}.cls-10,.cls-11,.cls-15,.cls-16,.cls-2,.cls-9{stroke-width:3px;}.cls-2{fill:url(#linear-gradient);}.cls-4{fill:#42374b;}.cls-5{fill:#c1272d;}.cls-6,.cls-9{fill:#42210b;}.cls-12,.cls-6{stroke-width:5px;}.cls-7{fill:#603813;}.cls-8{fill:#754c24;}.cls-10,.cls-12{fill:#f15a24;}.cls-11,.cls-17{fill:#f7931e;}.cls-13{fill:none;stroke-width:4px;}.cls-14{fill:#fff;}.cls-15{fill:url(#linear-gradient-2);}.cls-16{fill:url(#linear-gradient-3);}.cls-17{font-size:42px;font-family:Verlag-Black, Verlag;}.cls-18{letter-spacing:-0.01em;}</style><linearGradient id="linear-gradient" x1="109.3" y1="98.53" x2="271.58" y2="98.53" gradientUnits="userSpaceOnUse"><stop offset="0" stop-color="#f15a24"/><stop offset="0.3" stop-color="#f7931e"/></linearGradient><linearGradient id="linear-gradient-2" x1="153.29" y1="75.06" x2="153.29" y2="75.06" xlink:href="#linear-gradient"/><linearGradient id="linear-gradient-3" x1="96.79" y1="75.06" x2="96.79" y2="75.06" xlink:href="#linear-gradient"/></defs><title>watcher missing poster</title><rect class="cls-1" x="0.5" y="0.5" width="242" height="362.05"/><path class="cls-2" d="M199.23,98.53a81.19,81.19,0,1,1-81.14-81.14A81.14,81.14,0,0,1,199.23,98.53Z" transform="translate(3.62 2.55)"/><polyline class="cls-3" points="121.7 41.31 121.7 32.61 122.76 32.74 122.76 43.42 121.7 43.29"/><polygon class="cls-4" points="60.97 122.91 71.82 144.09 79.53 130.66 83.45 141.76 89.95 122.91 98 146.94 105.24 122.39 116.11 145.65 119.82 138.15 126.47 149.78 139.51 128.34 146.49 149.26 151.4 135.57 156.05 147.97 157.35 143.94 162.38 128.34 166.13 141.95 171.55 132.99 176.46 138.93 183.09 116.79 194.79 136.89 190.9 144 177.67 160.35 171.82 165.42 167.26 168.75 161.9 171.44 156.9 173.51 150.93 177.26 145.1 179.31 137.22 181.25 129.85 182.33 123.55 182.71 118.51 182.74 111.82 182.14 102.11 180.35 96.69 178.8 90.08 176.34 80.89 171.74 76.29 168.51 66.84 160.68 59.69 153.91 52.31 143.66 60.97 122.91"/><path class="cls-3" d="M109.88,28" transform="translate(3.62 2.55)"/><polygon class="cls-5" points="122.74 31.88 114.99 34.76 122.74 37.03 122.74 31.88"/><polygon class="cls-6" points="122.25 41.82 83.65 66.63 83.65 70.24 87.69 70.24 87.94 83.42 122.25 83.42 154.65 83.42 154.65 70.5 158.69 70.5 158.69 66.89 122.25 41.82"/><rect class="cls-7" x="82.34" y="66.88" width="76.31" height="3.1"/><polygon class="cls-8" points="122.76 41.31 155.15 69.98 158.65 69.98 158.69 66.89 122.76 41.31"/><polyline class="cls-9" points="86.89 83.77 77.62 83.77 77.62 87.55 81.33 87.55 163.36 87.55 163.36 83.77 154.1 83.77"/><rect class="cls-10" x="93.33" y="73.43" width="8.17" height="8.35"/><rect class="cls-10" x="106.98" y="73.43" width="8.17" height="8.35"/><rect class="cls-11" x="128.24" y="73.43" width="8.17" height="8.35"/><rect class="cls-11" x="141.37" y="73.43" width="8.17" height="8.35"/><path class="cls-10" d="M77.28,85" transform="translate(3.62 2.55)"/><line class="cls-12" x1="91.32" y1="176.74" x2="103.43" y2="87.57"/><line class="cls-12" x1="138.77" y1="87.55" x2="154.23" y2="174.76"/><line class="cls-12" x1="99.37" y1="119.5" x2="144.07" y2="119.5"/><line class="cls-12" x1="103.43" y1="91.17" x2="143.22" y2="112.14"/><line class="cls-12" x1="140.88" y1="90.57" x2="101.08" y2="111.54"/><polyline class="cls-12" points="99.37 126.57 127.83 141.68 149.9 153.4"/><polyline class="cls-12" points="145.17 125.82 116.71 140.94 94.65 152.65"/><path class="cls-13" d="M199.23,98.53a81.19,81.19,0,1,1-81.14-81.14A81.14,81.14,0,0,1,199.23,98.53Z" transform="translate(3.62 2.55)"/><path class="cls-14" d="M140.64,86.94" transform="translate(3.62 2.55)"/><path class="cls-15" d="M153.29,75.06" transform="translate(3.62 2.55)"/><path class="cls-16" d="M96.79,75.06" transform="translate(3.62 2.55)"/><text class="cls-17" transform="translate(31.97 243.29)">MISSING<tspan x="5.98" y="50.4">P</tspan><tspan class="cls-18" x="33.12" y="50.4">O</tspan><tspan x="68.86" y="50.4">STER</tspan></text></svg>