<svg id="Layer_1" data-name="Layer 1" xmlns="http://www.w3.org/2000/svg" xmlns:xlink="http://www.w3.org/1999/xlink" viewBox="0 0 1714 414"><defs><style>.cls-1{fill:#1f1f21;stroke:#333336;stroke-width:8px;opacity:0.93;}.cls-1,.cls-10,.cls-11,.cls-12,.cls-13,.cls-14,.cls-15,.cls-16,.cls-2,.cls-4,.cls-6,.cls-9{stroke-miterlimit:10;}.cls-10,.cls-11,.cls-12,.cls-13,.cls-15,.cls-16,.cls-2,.cls-4,.cls-6,.cls-9{stroke:#42210b;}.cls-10,.cls-11,.cls-15,.cls-16,.cls-2,.cls-9{stroke-width:3px;}.cls-2{fill:url(#linear-gradient);}.cls-3{fill:#534741;}.cls-4{fill:#42374b;}.cls-5{fill:#c1272d;}.cls-6,.cls-9{fill:#42210b;}.cls-6{stroke-width:5px;}.cls-7{fill:#603813;}.cls-8{fill:#754c24;}.cls-10,.cls-12,.cls-17{fill:#f15a24;}.cls-11{fill:#f7931e;}.cls-12{stroke-width:9px;}.cls-13{fill:none;stroke-width:4px;}.cls-14{fill:#fff;stroke:#000;}.cls-15{fill:url(#linear-gradient-2);}.cls-16{fill:url(#linear-gradient-3);}.cls-17{font-size:181.48px;font-family:Verlag-Black, Verlag;}.cls-18{letter-spacing:-0.04em;}.cls-19{letter-spacing:-0.06em;}.cls-20{letter-spacing:-0.03em;}</style><linearGradient id="linear-gradient" x1="441.38" y1="224.18" x2="755.41" y2="224.18" gradientUnits="userSpaceOnUse"><stop offset="0" stop-color="#f15a24"/><stop offset="0.3" stop-color="#f7931e"/></linearGradient><linearGradient id="linear-gradient-2" x1="526.5" y1="178.75" x2="526.5" y2="178.75" xlink:href="#linear-gradient"/><linearGradient id="linear-gradient-3" x1="417.17" y1="178.75" x2="417.17" y2="178.75" xlink:href="#linear-gradient"/></defs><title>watcher logo and text in box</title><rect class="cls-1" x="4" y="4" width="1706" height="406"/><path class="cls-2" d="M615.41,224.18a157.14,157.14,0,1,1-157-157A157,157,0,0,1,615.41,224.18Z" transform="translate(-15.5 -16)"/><polyline class="cls-3" points="442.87 92.5 442.87 75.67 444.92 75.92 444.92 96.58 442.87 96.33"/><polygon class="cls-4" points="325.35 250.42 346.35 291.42 361.26 265.42 368.85 286.89 381.43 250.42 397.02 296.92 411.02 249.42 432.05 294.42 439.25 279.92 452.1 302.42 477.34 260.93 490.85 301.42 500.35 274.92 509.35 298.92 511.87 291.12 521.6 260.93 528.85 287.26 539.35 269.92 548.85 281.42 561.68 238.58 584.32 277.48 576.78 291.24 551.19 322.87 539.87 332.68 531.05 339.13 520.67 344.33 511 348.33 499.44 355.6 488.17 359.56 472.92 363.32 458.64 365.41 446.46 366.15 436.7 366.19 423.75 365.04 404.97 361.58 394.48 358.58 381.69 353.82 363.91 344.91 355 338.67 336.71 323.5 322.88 310.42 308.6 290.57 325.35 250.42"/><path class="cls-3" d="M442.5,87.67" transform="translate(-15.5 -16)"/><polygon class="cls-5" points="444.89 74.25 429.89 79.82 444.89 84.23 444.89 74.25"/><polygon class="cls-6" points="443.95 93.5 369.24 141.5 369.24 148.5 377.06 148.5 377.55 174 443.95 174 506.64 174 506.64 149 514.46 149 514.46 142 443.95 93.5"/><rect class="cls-7" x="366.7" y="142" width="147.67" height="6"/><polygon class="cls-8" points="444.93 92.5 507.62 148 514.37 148 514.46 142 444.93 92.5"/><polyline class="cls-9" points="375.5 174.67 357.58 174.67 357.58 182 364.75 182 523.5 182 523.5 174.67 505.57 174.67"/><rect class="cls-10" x="387.98" y="154.67" width="15.81" height="16.17"/><rect class="cls-10" x="414.39" y="154.67" width="15.81" height="16.17"/><rect class="cls-11" x="455.54" y="154.67" width="15.81" height="16.17"/><rect class="cls-11" x="480.94" y="154.67" width="15.81" height="16.17"/><path class="cls-10" d="M379.41,198" transform="translate(-15.5 -16)"/><line class="cls-12" x1="384.08" y1="354.6" x2="407.51" y2="182.04"/><line class="cls-12" x1="475.92" y1="182" x2="505.83" y2="350.75"/><line class="cls-12" x1="399.67" y1="243.82" x2="486.17" y2="243.82"/><line class="cls-12" x1="407.51" y1="189" x2="484.53" y2="229.58"/><line class="cls-12" x1="479.99" y1="187.84" x2="402.97" y2="228.43"/><polyline class="cls-12" points="399.67 257.5 454.75 286.75 497.44 309.42"/><polyline class="cls-12" points="488.3 256.05 433.21 285.31 390.52 307.98"/><path class="cls-13" d="M615.41,224.18a157.14,157.14,0,1,1-157-157A157,157,0,0,1,615.41,224.18Z" transform="translate(-15.5 -16)"/><path class="cls-14" d="M502,201.75" transform="translate(-15.5 -16)"/><path class="cls-15" d="M526.5,178.75" transform="translate(-15.5 -16)"/><path class="cls-16" d="M417.17,178.75" transform="translate(-15.5 -16)"/><text class="cls-17" transform="translate(615.53 272.79) scale(0.89 1)"><tspan class="cls-18">W</tspan><tspan class="cls-19" x="178.21" y="0">A</tspan><tspan class="cls-20" x="293.08" y="0">T</tspan><tspan x="406.5" y="0">CHER</tspan></text></svg>