<svg id="Layer_1" data-name="Layer 1" xmlns="http://www.w3.org/2000/svg" xmlns:xlink="http://www.w3.org/1999/xlink" viewBox="0 0 318.04 318.04"><defs><style>.cls-1,.cls-10,.cls-11,.cls-12,.cls-14,.cls-15,.cls-3,.cls-5,.cls-8,.cls-9{stroke:#42210b;}.cls-1,.cls-10,.cls-11,.cls-12,.cls-13,.cls-14,.cls-15,.cls-3,.cls-5,.cls-8,.cls-9{stroke-miterlimit:10;}.cls-1,.cls-10,.cls-14,.cls-15,.cls-8,.cls-9{stroke-width:3px;}.cls-1{fill:url(#linear-gradient);}.cls-2{fill:#534741;}.cls-3{fill:#42374b;}.cls-4{fill:#c1272d;}.cls-5,.cls-8{fill:#42210b;}.cls-5{stroke-width:5px;}.cls-6{fill:#603813;}.cls-7{fill:#754c24;}.cls-11,.cls-9{fill:#f15a24;}.cls-10{fill:#f7931e;}.cls-11{stroke-width:9px;}.cls-12{fill:none;stroke-width:4px;}.cls-13{fill:#fff;stroke:#000;}.cls-14{fill:url(#linear-gradient-2);}.cls-15{fill:url(#linear-gradient-3);}</style><linearGradient id="linear-gradient" x1="148.86" y1="164.18" x2="462.9" y2="164.18" gradientUnits="userSpaceOnUse"><stop offset="0" stop-color="#f15a24"/><stop offset="0.3" stop-color="#f7931e"/></linearGradient><linearGradient id="linear-gradient-2" x1="233.98" y1="118.75" x2="233.98" y2="118.75" xlink:href="#linear-gradient"/><linearGradient id="linear-gradient-3" x1="124.65" y1="118.75" x2="124.65" y2="118.75" xlink:href="#linear-gradient"/></defs><title>watcher logo large</title><path class="cls-1" d="M322.9,164.18a157.14,157.14,0,1,1-157-157A157,157,0,0,1,322.9,164.18Z" transform="translate(-6.86 -5.16)"/><polyline class="cls-2" points="158.99 43.34 158.99 26.51 161.04 26.76 161.04 47.42 158.99 47.17"/><polygon class="cls-3" points="41.48 201.26 62.48 242.26 77.38 216.26 84.97 237.74 97.55 201.26 113.14 247.76 127.14 200.26 148.17 245.26 155.37 230.76 168.22 253.26 193.46 211.77 206.97 252.26 216.47 225.76 225.47 249.76 227.99 241.96 237.72 211.77 244.97 238.1 255.47 220.76 264.98 232.26 277.81 189.43 300.44 228.32 292.91 242.08 267.31 273.71 255.99 283.52 247.17 289.97 236.79 295.18 227.12 299.18 215.56 306.44 204.29 310.41 189.04 314.17 174.76 316.25 162.58 316.99 152.82 317.04 139.87 315.88 121.09 312.42 110.6 309.43 97.82 304.66 80.03 295.75 71.12 289.51 52.84 274.35 39 261.26 24.72 241.42 41.48 201.26"/><path class="cls-2" d="M150,27.67" transform="translate(-6.86 -5.16)"/><polygon class="cls-4" points="161.02 25.09 146.02 30.67 161.02 35.07 161.02 25.09"/><polygon class="cls-5" points="160.07 44.34 85.36 92.34 85.36 99.34 93.18 99.34 93.67 124.84 160.07 124.84 222.76 124.84 222.76 99.84 230.58 99.84 230.58 92.84 160.07 44.34"/><rect class="cls-6" x="82.83" y="92.84" width="147.67" height="6"/><polygon class="cls-7" points="161.05 43.34 223.74 98.84 230.5 98.84 230.58 92.84 161.05 43.34"/><polyline class="cls-8" points="91.63 125.51 73.7 125.51 73.7 132.84 80.87 132.84 239.62 132.84 239.62 125.51 221.69 125.51"/><rect class="cls-9" x="104.1" y="105.51" width="15.81" height="16.17"/><rect class="cls-9" x="130.51" y="105.51" width="15.81" height="16.17"/><rect class="cls-10" x="171.66" y="105.51" width="15.81" height="16.17"/><rect class="cls-10" x="197.07" y="105.51" width="15.81" height="16.17"/><path class="cls-9" d="M86.89,138" transform="translate(-6.86 -5.16)"/><line class="cls-11" x1="100.2" y1="305.44" x2="123.64" y2="132.88"/><line class="cls-11" x1="192.04" y1="132.84" x2="221.96" y2="301.6"/><line class="cls-11" x1="115.79" y1="194.66" x2="202.29" y2="194.66"/><line class="cls-11" x1="123.64" y1="139.84" x2="200.65" y2="180.43"/><line class="cls-11" x1="196.11" y1="138.68" x2="119.09" y2="179.27"/><polyline class="cls-11" points="115.79 208.34 170.87 237.59 213.56 260.26"/><polyline class="cls-11" points="204.42 206.9 149.34 236.15 106.64 258.82"/><path class="cls-12" d="M322.9,164.18a157.14,157.14,0,1,1-157-157A157,157,0,0,1,322.9,164.18Z" transform="translate(-6.86 -5.16)"/><path class="cls-13" d="M209.51,141.75" transform="translate(-6.86 -5.16)"/><path class="cls-14" d="M234,118.75" transform="translate(-6.86 -5.16)"/><path class="cls-15" d="M124.65,118.75" transform="translate(-6.86 -5.16)"/></svg>